<?xml version="1.0" encoding="UTF-8" standalone="no"?>
<!-- Created with Inkscape (http://www.inkscape.org/) -->

<svg
   width="32"
   height="32"
   viewBox="0 0 8.4666666 8.4666666"
   version="1.1"
   id="svg1"
   inkscape:version="1.3.2 (1:1.3.2+202404261509+091e20ef0f)"
   sodipodi:docname="favicon.svg"
   inkscape:export-filename="icon-pdt-192x192.png"
   inkscape:export-xdpi="576"
   inkscape:export-ydpi="576"
   xmlns:inkscape="http://www.inkscape.org/namespaces/inkscape"
   xmlns:sodipodi="http://sodipodi.sourceforge.net/DTD/sodipodi-0.dtd"
   xmlns="http://www.w3.org/2000/svg"
   xmlns:svg="http://www.w3.org/2000/svg">
  <sodipodi:namedview
     id="namedview1"
     pagecolor="#ffffff"
     bordercolor="#000000"
     borderopacity="0.25"
     inkscape:showpageshadow="2"
     inkscape:pageopacity="0.0"
     inkscape:pagecheckerboard="0"
     inkscape:deskcolor="#d1d1d1"
     inkscape:document-units="mm"
     inkscape:zoom="32.574846"
     inkscape:cx="13.016178"
     inkscape:cy="13.937134"
     inkscape:window-width="1870"
     inkscape:window-height="1011"
     inkscape:window-x="0"
     inkscape:window-y="0"
     inkscape:window-maximized="1"
     inkscape:current-layer="layer1" />
  <defs
     id="defs1" />
  <g
     inkscape:label="Layer 1"
     inkscape:groupmode="layer"
     id="layer1">
    <rect
       style="fill:#333333;stroke-width:0.327889"
       id="rect1"
       width="5.9758067"
       height="4.9003611"
       x="0.57452691"
       y="0.40403193"
       ry="0.98773032" />
    <rect
       style="fill:#4d4d4d;stroke-width:0.292508"
       id="rect1-8"
       width="4.49507"
       height="5.184515"
       x="1.3104601"
       y="3.0620081"
       ry="0.70236135"
       rx="0" />
    <rect
       style="fill:#d4aa00;stroke-width:0.278912"
       id="rect3-8"
       width="0.84592706"
       height="0.7120356"
       x="3.2654715"
       y="5.3049026" />
    <rect
       style="fill:#008080;stroke-width:0.350985"
       id="rect2"
       width="4.4475412"
       height="3.00088"
       x="1.3594096"
       y="1.2785039"
       ry="0.62977278" />
    <rect
       style="fill:#786721;stroke-width:0.262636"
       id="rect5-8"
       width="2.508564"
       height="0.36674416"
       x="1.7476449"
       y="3.3156447" />
    <rect
       style="fill:#786721;stroke-width:0.129485"
       id="rect5-5"
       width="0.60975939"
       height="0.36674416"
       x="1.751605"
       y="2.6531615" />
    <rect
       style="fill:#786721;stroke-width:0.172065"
       id="rect5-1"
       width="1.0767205"
       height="0.36674416"
       x="2.6404028"
       y="2.6509259" />
    <rect
       style="fill:#786721;stroke-width:0.172065"
       id="rect5-3"
       width="1.0767205"
       height="0.36674416"
       x="4.0621676"
       y="2.653312" />
    <rect
       style="fill:#d4aa00;stroke-width:0.278912"
       id="rect3"
       width="0.84592706"
       height="0.7120356"
       x="1.9830513"
       y="5.3041921" />
    <rect
       style="fill:#d4aa00;stroke-width:0.278912"
       id="rect3-8-9"
       width="0.84592706"
       height="0.7120356"
       x="4.5400481"
       y="5.3250537" />
    <rect
       style="fill:#d4aa00;stroke-width:0.278912"
       id="rect3-8-0"
       width="0.84592706"
       height="0.7120356"
       x="3.2605543"
       y="6.5889864" />
    <rect
       style="fill:#d4aa00;stroke-width:0.278912"
       id="rect3-4"
       width="0.84592706"
       height="0.7120356"
       x="1.9781342"
       y="6.5882759" />
    <rect
       style="fill:#d4aa00;stroke-width:0.278912"
       id="rect3-8-9-1"
       width="0.84592706"
       height="0.7120356"
       x="4.5351315"
       y="6.6091375" />
    <path
       style="fill:#f9f9f9;stroke-width:0.264583"
       d="m 4.1622843,1.6944204 c 1.2563191,-0.00197 1.1776091,-0.038122 1.1748511,1.1997967 L 5.3356258,3.5718239 5.0113006,2.7439687 C 4.7782181,2.1939996 4.5092757,2.2164574 4.1571595,2.1769164 l 0.0066,-0.2798089"
       id="path4"
       sodipodi:nodetypes="cscccc" />
    <rect
       style="fill:#f9f9f9;stroke-width:0.264583"
       id="rect4"
       width="0.50444996"
       height="0.50801712"
       x="3.4009817"
       y="1.6661093" />
    <rect
       style="fill:#786721;stroke-width:0.172065"
       id="rect5"
       width="1.0767205"
       height="0.36674416"
       x="1.7568586"
       y="2.0171266" />
    <path
       style="fill:#1a1a1a;stroke-width:0.264583"
       d="M 6.4352866,1.3108294 7.2987192,2.1111806 8.0463338,3.5974676 8.35266,4.7038131 8.2657558,6.2063355 8.0343977,6.8090267 7.6466298,7.5270922 7.0278997,7.7851743 6.6340498,7.077577 6.9680305,6.0870945 6.9176775,5.7794749 6.5789066,3.5087257 6.5488524,2.0180688 6.8116438,3.8194049 7.1613859,5.5868749 7.1554521,6.3524186 7.1551173,6.7807636 7.5044721,6.6373928 7.6794724,5.9604545 7.7094669,5.3418946 7.71294,4.6787723 7.4831177,3.5540964 7.0958003,2.7150886 6.4390291,1.8083009"
       id="path5"
       sodipodi:nodetypes="cccccccccccccccccccccccc" />
  </g>
</svg>
