<?xml version="1.0" encoding="UTF-8" standalone="no"?>
<!-- Created with Inkscape (http://www.inkscape.org/) -->

<svg
   width="135"
   height="40"
   viewBox="0 0 35.718749 10.583333"
   version="1.1"
   id="svg1"
   xml:space="preserve"
   inkscape:version="1.3 (0e150ed, 2023-07-21)"
   sodipodi:docname="logo-135x40.svg"
   xmlns:inkscape="http://www.inkscape.org/namespaces/inkscape"
   xmlns:sodipodi="http://sodipodi.sourceforge.net/DTD/sodipodi-0.dtd"
   xmlns="http://www.w3.org/2000/svg"
   xmlns:svg="http://www.w3.org/2000/svg"><sodipodi:namedview
     id="namedview1"
     pagecolor="#ffffff"
     bordercolor="#000000"
     borderopacity="0.25"
     inkscape:showpageshadow="2"
     inkscape:pageopacity="0.0"
     inkscape:pagecheckerboard="0"
     inkscape:deskcolor="#d1d1d1"
     inkscape:document-units="mm"
     inkscape:zoom="5.4386749"
     inkscape:cx="66.192594"
     inkscape:cy="48.908972"
     inkscape:window-width="1384"
     inkscape:window-height="847"
     inkscape:window-x="62"
     inkscape:window-y="25"
     inkscape:window-maximized="1"
     inkscape:current-layer="layer1" /><defs
     id="defs1" /><g
     inkscape:label="Layer 1"
     inkscape:groupmode="layer"
     id="layer1"><g
       id="Object"
       style="fill:#ececec;stroke-width:25.3417"
       transform="matrix(0.01301449,0,0,0.00837589,1.6459598,13.79525)">&#10;	<g
   id="g52"
   style="fill:#ececec;stroke-width:25.3417"
   transform="matrix(0.8852219,-0.72278135,0.29937433,0.8852219,60.91447,-884.12972)">&#10;		<g
   id="g2"
   style="fill:#ececec;stroke-width:25.3417">&#10;			<rect
   x="77.894997"
   y="313.634"
   style="fill:#ececec;stroke-width:25.3417"
   width="20.893999"
   height="474.88501"
   id="rect2-8" />&#10;		</g>&#10;		<g
   id="g3"
   style="fill:#ececec;stroke-width:25.3417">&#10;			<rect
   x="106.623"
   y="313.634"
   style="fill:#ececec;stroke-width:25.3417"
   width="13.058"
   height="474.88501"
   id="rect3-7" />&#10;		</g>&#10;		<g
   id="g4"
   style="fill:#ececec;stroke-width:25.3417">&#10;			<rect
   x="997.15802"
   y="313.634"
   style="fill:#ececec;stroke-width:25.3417"
   width="20.893"
   height="474.88501"
   id="rect4-7" />&#10;		</g>&#10;		<g
   id="g5"
   style="fill:#ececec;stroke-width:25.3417">&#10;			<rect
   x="1024.416"
   y="313.634"
   style="fill:#ececec;stroke-width:25.3417"
   width="8.1610003"
   height="474.88501"
   id="rect5-4" />&#10;		</g>&#10;		<g
   id="g6"
   style="fill:#ececec;stroke-width:25.3417">&#10;			<rect
   x="1039.004"
   y="313.634"
   style="fill:#ececec;stroke-width:25.3417"
   width="5.1009998"
   height="474.88501"
   id="rect6" />&#10;		</g>&#10;		<g
   id="g7"
   style="fill:#ececec;stroke-width:25.3417">&#10;			<rect
   x="135.35001"
   y="313.634"
   style="fill:#ececec;stroke-width:25.3417"
   width="11.545"
   height="407.18399"
   id="rect7" />&#10;		</g>&#10;		<g
   id="g8"
   style="fill:#ececec;stroke-width:25.3417">&#10;			<rect
   x="156.661"
   y="313.634"
   style="fill:#ececec;stroke-width:25.3417"
   width="26.789"
   height="407.18399"
   id="rect8" />&#10;		</g>&#10;		<g
   id="g9"
   style="fill:#ececec;stroke-width:25.3417">&#10;			<rect
   x="191.91701"
   y="313.634"
   style="fill:#ececec;stroke-width:25.3417"
   width="8.5100002"
   height="407.18399"
   id="rect9" />&#10;		</g>&#10;		<g
   id="g10"
   style="fill:#ececec;stroke-width:25.3417">&#10;			<rect
   x="208.263"
   y="313.634"
   style="fill:#ececec;stroke-width:25.3417"
   width="5.8509998"
   height="407.18399"
   id="rect10" />&#10;		</g>&#10;		<g
   id="g11"
   style="fill:#ececec;stroke-width:25.3417">&#10;			<rect
   x="282.953"
   y="313.634"
   style="fill:#ececec;stroke-width:25.3417"
   width="4.0219998"
   height="407.18399"
   id="rect11" />&#10;		</g>&#10;		<g
   id="g12"
   style="fill:#ececec;stroke-width:25.3417">&#10;			<rect
   x="293.724"
   y="313.634"
   style="fill:#ececec;stroke-width:25.3417"
   width="7.289"
   height="407.18399"
   id="rect12" />&#10;		</g>&#10;		<g
   id="g13"
   style="fill:#ececec;stroke-width:25.3417">&#10;			<rect
   x="230.774"
   y="313.634"
   style="fill:#ececec;stroke-width:25.3417"
   width="9.1409998"
   height="407.18399"
   id="rect13" />&#10;		</g>&#10;		<g
   id="g14"
   style="fill:#ececec;stroke-width:25.3417">&#10;			<rect
   x="257.70499"
   y="313.634"
   style="fill:#ececec;stroke-width:25.3417"
   width="20.566"
   height="407.18399"
   id="rect14" />&#10;		</g>&#10;		<g
   id="g15"
   style="fill:#ececec;stroke-width:25.3417">&#10;			<rect
   x="312.935"
   y="313.634"
   style="fill:#ececec;stroke-width:25.3417"
   width="15.997"
   height="407.18399"
   id="rect15" />&#10;		</g>&#10;		<g
   id="g16"
   style="fill:#ececec;stroke-width:25.3417">&#10;			<rect
   x="342.46301"
   y="313.634"
   style="fill:#ececec;stroke-width:25.3417"
   width="37.119999"
   height="407.18399"
   id="rect16" />&#10;		</g>&#10;		<g
   id="g17"
   style="fill:#ececec;stroke-width:25.3417">&#10;			<rect
   x="391.314"
   y="313.634"
   style="fill:#ececec;stroke-width:25.3417"
   width="11.789"
   height="407.18399"
   id="rect17" />&#10;		</g>&#10;		<g
   id="g18"
   style="fill:#ececec;stroke-width:25.3417">&#10;			<rect
   x="413.96301"
   y="313.634"
   style="fill:#ececec;stroke-width:25.3417"
   width="8.1059999"
   height="407.18399"
   id="rect18" />&#10;		</g>&#10;		<g
   id="g19"
   style="fill:#ececec;stroke-width:25.3417">&#10;			<rect
   x="485.798"
   y="313.634"
   style="fill:#ececec;stroke-width:25.3417"
   width="3.026"
   height="407.18399"
   id="rect19" />&#10;		</g>&#10;		<g
   id="g20"
   style="fill:#ececec;stroke-width:25.3417">&#10;			<rect
   x="493.90302"
   y="313.634"
   style="fill:#ececec;stroke-width:25.3417"
   width="5.4840002"
   height="407.18399"
   id="rect20" />&#10;		</g>&#10;		<g
   id="g21"
   style="fill:#ececec;stroke-width:25.3417">&#10;			<rect
   x="428.17899"
   y="313.634"
   style="fill:#ececec;stroke-width:25.3417"
   width="12.666"
   height="407.18399"
   id="rect21" />&#10;		</g>&#10;		<g
   id="g22"
   style="fill:#ececec;stroke-width:25.3417">&#10;			<rect
   x="888.27502"
   y="313.634"
   style="fill:#ececec;stroke-width:25.3417"
   width="37.119999"
   height="407.18399"
   id="rect22" />&#10;		</g>&#10;		<g
   id="g23"
   style="fill:#ececec;stroke-width:25.3417">&#10;			<rect
   x="937.12598"
   y="313.634"
   style="fill:#ececec;stroke-width:25.3417"
   width="11.79"
   height="407.18399"
   id="rect23" />&#10;		</g>&#10;		<g
   id="g24"
   style="fill:#ececec;stroke-width:25.3417">&#10;			<rect
   x="959.77502"
   y="313.634"
   style="fill:#ececec;stroke-width:25.3417"
   width="8.1059999"
   height="407.18399"
   id="rect24" />&#10;		</g>&#10;		<g
   id="g25"
   style="fill:#ececec;stroke-width:25.3417">&#10;			<rect
   x="973.992"
   y="313.634"
   style="fill:#ececec;stroke-width:25.3417"
   width="12.665"
   height="407.18399"
   id="rect25" />&#10;		</g>&#10;		<g
   id="g26"
   style="fill:#ececec;stroke-width:25.3417">&#10;			<rect
   x="457.66101"
   y="313.634"
   style="fill:#ececec;stroke-width:25.3417"
   width="15.475"
   height="407.18399"
   id="rect26" />&#10;		</g>&#10;		<g
   id="g27"
   style="fill:#ececec;stroke-width:25.3417">&#10;			<rect
   x="546.19397"
   y="313.634"
   style="fill:#ececec;stroke-width:25.3417"
   width="5.8099999"
   height="407.18399"
   id="rect27" />&#10;		</g>&#10;		<g
   id="g28"
   style="fill:#ececec;stroke-width:25.3417">&#10;			<rect
   x="613.04303"
   y="313.634"
   style="fill:#ececec;stroke-width:25.3417"
   width="3.9949999"
   height="407.18399"
   id="rect28" />&#10;		</g>&#10;		<g
   id="g29"
   style="fill:#ececec;stroke-width:25.3417">&#10;			<rect
   x="637.82703"
   y="313.634"
   style="fill:#ececec;stroke-width:25.3417"
   width="9.2690001"
   height="407.18399"
   id="rect29" />&#10;		</g>&#10;		<g
   id="g30"
   style="fill:#ececec;stroke-width:25.3417">&#10;			<rect
   x="561.755"
   y="313.634"
   style="fill:#ececec;stroke-width:25.3417"
   width="10.531"
   height="407.18399"
   id="rect30" />&#10;		</g>&#10;		<g
   id="g31"
   style="fill:#ececec;stroke-width:25.3417">&#10;			<rect
   x="509.71899"
   y="313.634"
   style="fill:#ececec;stroke-width:25.3417"
   width="29.712"
   height="407.18399"
   id="rect31" />&#10;		</g>&#10;		<g
   id="g32"
   style="fill:#ececec;stroke-width:25.3417">&#10;			<rect
   x="589.50897"
   y="313.634"
   style="fill:#ececec;stroke-width:25.3417"
   width="15.277"
   height="407.18399"
   id="rect32" />&#10;		</g>&#10;		<g
   id="g33"
   style="fill:#ececec;stroke-width:25.3417">&#10;			<rect
   x="655.73602"
   y="313.634"
   style="fill:#ececec;stroke-width:25.3417"
   width="17.033001"
   height="407.18399"
   id="rect33" />&#10;		</g>&#10;		<g
   id="g34"
   style="fill:#ececec;stroke-width:25.3417">&#10;			<rect
   x="688.45599"
   y="313.634"
   style="fill:#ececec;stroke-width:25.3417"
   width="11.709"
   height="407.18399"
   id="rect34" />&#10;		</g>&#10;		<g
   id="g35"
   style="fill:#ececec;stroke-width:25.3417">&#10;			<rect
   x="792.237"
   y="313.634"
   style="fill:#ececec;stroke-width:25.3417"
   width="4.3720002"
   height="407.18399"
   id="rect35" />&#10;		</g>&#10;		<g
   id="g36"
   style="fill:#ececec;stroke-width:25.3417">&#10;			<rect
   x="809.82202"
   y="313.634"
   style="fill:#ececec;stroke-width:25.3417"
   width="7.9229999"
   height="407.18399"
   id="rect36" />&#10;		</g>&#10;		<g
   id="g37"
   style="fill:#ececec;stroke-width:25.3417">&#10;			<rect
   x="826.84003"
   y="313.634"
   style="fill:#ececec;stroke-width:25.3417"
   width="4.3720002"
   height="407.18399"
   id="rect37" />&#10;		</g>&#10;		<g
   id="g38"
   style="fill:#ececec;stroke-width:25.3417">&#10;			<rect
   x="844.362"
   y="313.634"
   style="fill:#ececec;stroke-width:25.3417"
   width="3.279"
   height="407.18399"
   id="rect38" />&#10;		</g>&#10;		<g
   id="g39"
   style="fill:#ececec;stroke-width:25.3417">&#10;			<rect
   x="857.505"
   y="313.634"
   style="fill:#ececec;stroke-width:25.3417"
   width="18.325001"
   height="407.18399"
   id="rect39" />&#10;		</g>&#10;		<g
   id="g40"
   style="fill:#ececec;stroke-width:25.3417">&#10;			<rect
   x="708.99402"
   y="313.634"
   style="fill:#ececec;stroke-width:25.3417"
   width="18.298"
   height="407.18399"
   id="rect40" />&#10;		</g>&#10;		<g
   id="g41"
   style="fill:#ececec;stroke-width:25.3417">&#10;			<rect
   x="751.586"
   y="313.634"
   style="fill:#ececec;stroke-width:25.3417"
   width="22.358"
   height="407.18399"
   id="rect41" />&#10;		</g>&#10;		<g
   id="g51"
   style="fill:#ececec;stroke-width:25.3417">&#10;			<path
   d="m 187.247,807.088 v -20.556 h -35.075 v -6.737 l 33.681,-48.199 h 11.033 v 46.921 h 10.569 v 8.015 h -10.569 v 20.556 z m 0,-28.571 v -25.204 c 0,-3.947 0.116,-7.896 0.348,-11.845 h -0.348 c -2.323,4.412 -4.182,7.665 -6.272,11.149 l -18.467,25.669 v 0.232 h 24.739 z"
   id="path41"
   style="fill:#ececec;stroke-width:25.3417" />&#10;			<path
   d="m 277.023,768.529 c 0,25.667 -9.524,39.836 -26.248,39.836 -14.75,0 -24.739,-13.822 -24.97,-38.792 0,-25.318 10.917,-39.257 26.247,-39.257 15.912,10e-4 24.971,14.171 24.971,38.213 z m -40.999,1.162 c 0,19.627 6.04,30.777 15.331,30.777 10.453,0 15.447,-12.195 15.447,-31.475 0,-18.582 -4.762,-30.777 -15.331,-30.777 -8.943,-10e-4 -15.447,10.917 -15.447,31.475 z"
   id="path42"
   style="fill:#ececec;stroke-width:25.3417" />&#10;			<path
   d="m 320.225,741.12 h -0.232 l -13.124,7.085 -1.974,-7.783 16.492,-8.826 h 8.71 v 75.492 h -9.872 z"
   id="path43"
   style="fill:#ececec;stroke-width:25.3417" />&#10;			<path
   d="m 368.306,787.924 c 0,-9.524 5.691,-16.259 14.982,-20.208 l -0.116,-0.348 c -8.362,-3.949 -11.963,-10.454 -11.963,-16.957 0,-11.964 10.105,-20.093 23.345,-20.093 14.634,0 21.951,9.176 21.951,18.584 0,6.387 -3.136,13.24 -12.428,17.654 v 0.348 c 9.408,3.716 15.215,10.336 15.215,19.512 0,13.123 -11.266,21.951 -25.667,21.951 -15.796,-10e-4 -25.319,-9.409 -25.319,-20.443 z m 40.649,-0.465 c 0,-9.174 -6.388,-13.588 -16.608,-16.492 -8.827,2.556 -13.588,8.363 -13.588,15.565 -0.349,7.665 5.459,14.401 15.098,14.401 9.176,0 15.098,-5.692 15.098,-13.474 z m -28.106,-37.745 c 0,7.548 5.691,11.614 14.401,13.936 6.504,-2.206 11.498,-6.852 11.498,-13.705 0,-6.04 -3.6,-12.31 -12.775,-12.31 -8.478,10e-4 -13.124,5.574 -13.124,12.079 z"
   id="path44"
   style="fill:#ececec;stroke-width:25.3417" />&#10;			<path
   d="m 462.611,741.12 h -0.232 l -13.124,7.085 -1.974,-7.783 16.492,-8.826 h 8.71 v 75.492 h -9.872 z"
   id="path45"
   style="fill:#ececec;stroke-width:25.3417" />&#10;			<path
   d="m 596.868,731.595 v 6.737 L 564,807.088 h -10.569 l 32.752,-66.781 v -0.233 H 549.25 v -8.478 h 47.618 z"
   id="path46"
   style="fill:#ececec;stroke-width:25.3417" />&#10;			<path
   d="m 669.221,768.529 c 0,25.667 -9.522,39.836 -26.248,39.836 -14.75,0 -24.737,-13.822 -24.97,-38.792 0,-25.318 10.917,-39.257 26.248,-39.257 15.912,10e-4 24.97,14.171 24.97,38.213 z m -40.998,1.162 c 0,19.627 6.04,30.777 15.331,30.777 10.452,0 15.448,-12.195 15.448,-31.475 0,-18.582 -4.762,-30.777 -15.331,-30.777 -8.943,-10e-4 -15.448,10.917 -15.448,31.475 z"
   id="path47"
   style="fill:#ececec;stroke-width:25.3417" />&#10;			<path
   d="m 740.414,768.529 c 0,25.667 -9.522,39.836 -26.248,39.836 -14.75,0 -24.737,-13.822 -24.97,-38.792 0,-25.318 10.917,-39.257 26.248,-39.257 15.913,10e-4 24.97,14.171 24.97,38.213 z m -40.998,1.162 c 0,19.627 6.04,30.777 15.331,30.777 10.452,0 15.448,-12.195 15.448,-31.475 0,-18.582 -4.762,-30.777 -15.331,-30.777 -8.943,-10e-4 -15.448,10.917 -15.448,31.475 z"
   id="path48"
   style="fill:#ececec;stroke-width:25.3417" />&#10;			<path
   d="m 767.361,799.886 c 2.206,0.233 4.76,0 8.244,-0.348 5.923,-0.813 11.499,-3.251 15.796,-7.316 4.994,-4.529 8.594,-11.149 9.989,-20.093 h -0.35 c -4.18,5.11 -10.219,8.131 -17.769,8.131 -13.588,0 -22.299,-10.221 -22.299,-23.112 0,-14.286 10.336,-26.83 25.783,-26.83 15.446,0 24.97,12.543 24.97,31.824 0,16.607 -5.575,28.223 -13.008,35.422 -5.807,5.692 -13.82,9.176 -21.951,10.106 -3.716,0.58 -6.968,0.697 -9.406,0.58 v -8.364 z m 3.715,-43.437 c 0,9.408 5.69,16.028 14.518,16.028 6.852,0 12.195,-3.367 14.866,-7.896 0.58,-0.93 0.93,-2.091 0.93,-3.717 0,-12.892 -4.762,-22.764 -15.448,-22.764 -8.711,-10e-4 -14.866,7.665 -14.866,18.349 z"
   id="path49"
   style="fill:#ececec;stroke-width:25.3417" />&#10;			<path
   d="m 831.701,787.924 c 0,-9.524 5.69,-16.259 14.983,-20.208 l -0.117,-0.348 c -8.363,-3.949 -11.962,-10.454 -11.962,-16.957 0,-11.964 10.104,-20.093 23.344,-20.093 14.635,0 21.951,9.176 21.951,18.584 0,6.387 -3.136,13.24 -12.427,17.654 v 0.348 c 9.408,3.716 15.215,10.336 15.215,19.512 0,13.123 -11.267,21.951 -25.669,21.951 -15.794,-10e-4 -25.318,-9.409 -25.318,-20.443 z m 40.649,-0.465 c 0,-9.174 -6.388,-13.588 -16.607,-16.492 -8.828,2.556 -13.59,8.363 -13.59,15.565 -0.348,7.665 5.459,14.401 15.1,14.401 9.174,0 15.097,-5.692 15.097,-13.474 z m -28.106,-37.745 c 0,7.548 5.69,11.614 14.401,13.936 6.505,-2.206 11.499,-6.852 11.499,-13.705 0,-6.04 -3.601,-12.31 -12.777,-12.31 -8.477,10e-4 -13.123,5.574 -13.123,12.079 z"
   id="path50"
   style="fill:#ececec;stroke-width:25.3417" />&#10;			<path
   d="m 903.824,807.088 v -6.272 l 8.013,-7.781 c 19.28,-18.35 27.991,-28.106 28.106,-39.488 0,-7.667 -3.716,-14.75 -14.981,-14.75 -6.853,0 -12.543,3.484 -16.028,6.387 l -3.253,-7.2 c 5.227,-4.414 12.66,-7.666 21.369,-7.666 16.261,0 23.113,11.151 23.113,21.951 0,13.938 -10.104,25.204 -26.015,40.535 l -6.04,5.573 v 0.233 h 33.913 v 8.478 z"
   id="path51"
   style="fill:#ececec;stroke-width:25.3417" />&#10;		</g>&#10;	</g>&#10;</g><g
       inkscape:label="Layer 1"
       id="layer1-0"
       transform="matrix(0.97172381,0,0,0.97172381,1.1431501,1.2132031)"
       style="stroke-width:1.0291"><rect
         style="fill:#333333;stroke-width:0.33743"
         id="rect1"
         width="5.9758067"
         height="4.9003611"
         x="0.57452691"
         y="0.40403193"
         ry="0.98773032" /><rect
         style="fill:#4d4d4d;stroke-width:0.30102"
         id="rect1-8"
         width="4.49507"
         height="5.184515"
         x="1.3104601"
         y="3.0620081"
         ry="0.70236135"
         rx="0" /><rect
         style="fill:#d4aa00;stroke-width:0.287028"
         id="rect3-8"
         width="0.84592706"
         height="0.7120356"
         x="3.2654715"
         y="5.3049026" /><rect
         style="fill:#008080;stroke-width:0.361198"
         id="rect2"
         width="4.4475412"
         height="3.00088"
         x="1.3594096"
         y="1.2785039"
         ry="0.62977278" /><rect
         style="fill:#786721;stroke-width:0.270279"
         id="rect5-8"
         width="2.508564"
         height="0.36674416"
         x="1.7476449"
         y="3.3156447" /><rect
         style="fill:#786721;stroke-width:0.133253"
         id="rect5-5"
         width="0.60975939"
         height="0.36674416"
         x="1.751605"
         y="2.6531615" /><rect
         style="fill:#786721;stroke-width:0.177072"
         id="rect5-1"
         width="1.0767205"
         height="0.36674416"
         x="2.6404028"
         y="2.6509259" /><rect
         style="fill:#786721;stroke-width:0.177072"
         id="rect5-3"
         width="1.0767205"
         height="0.36674416"
         x="4.0621676"
         y="2.653312" /><rect
         style="fill:#d4aa00;stroke-width:0.287028"
         id="rect3"
         width="0.84592706"
         height="0.7120356"
         x="1.9830513"
         y="5.3041921" /><rect
         style="fill:#d4aa00;stroke-width:0.287028"
         id="rect3-8-9"
         width="0.84592706"
         height="0.7120356"
         x="4.5400481"
         y="5.3250537" /><rect
         style="fill:#d4aa00;stroke-width:0.287028"
         id="rect3-8-0"
         width="0.84592706"
         height="0.7120356"
         x="3.2605543"
         y="6.5889864" /><rect
         style="fill:#d4aa00;stroke-width:0.287028"
         id="rect3-4"
         width="0.84592706"
         height="0.7120356"
         x="1.9781342"
         y="6.5882759" /><rect
         style="fill:#d4aa00;stroke-width:0.287028"
         id="rect3-8-9-1"
         width="0.84592706"
         height="0.7120356"
         x="4.5351315"
         y="6.6091375" /><path
         style="fill:#f9f9f9;stroke-width:0.272282"
         d="m 4.1622843,1.6944204 c 1.2563191,-0.00197 1.1776091,-0.038122 1.1748511,1.1997967 L 5.3356258,3.5718239 5.0113006,2.7439687 C 4.7782181,2.1939996 4.5092757,2.2164574 4.1571595,2.1769164 l 0.0066,-0.2798089"
         id="path4"
         sodipodi:nodetypes="cscccc" /><rect
         style="fill:#f9f9f9;stroke-width:0.272282"
         id="rect4"
         width="0.50444996"
         height="0.50801712"
         x="3.4009817"
         y="1.6661093" /><rect
         style="fill:#786721;stroke-width:0.177072"
         id="rect5"
         width="1.0767205"
         height="0.36674416"
         x="1.7568586"
         y="2.0171266" /><path
         style="fill:#1a1a1a;stroke-width:0.272282"
         d="M 6.4352866,1.3108294 7.2987192,2.1111806 8.0463338,3.5974676 8.35266,4.7038131 8.2657558,6.2063355 8.0343977,6.8090267 7.6466298,7.5270922 7.0278997,7.7851743 6.6340498,7.077577 6.9680305,6.0870945 6.9176775,5.7794749 6.5789066,3.5087257 6.5488524,2.0180688 6.8116438,3.8194049 7.1613859,5.5868749 7.1554521,6.3524186 7.1551173,6.7807636 7.5044721,6.6373928 7.6794724,5.9604545 7.7094669,5.3418946 7.71294,4.6787723 7.4831177,3.5540964 7.0958003,2.7150886 6.4390291,1.8083009"
         id="path5"
         sodipodi:nodetypes="cccccccccccccccccccccccc" /></g><text
       xml:space="preserve"
       style="font-size:2.78121px;fill:#1a1a1a;stroke-width:0.734999"
       x="11.414407"
       y="4.0926075"
       id="text1"><tspan
         sodipodi:role="line"
         id="tspan1"
         style="font-weight:bold;fill:#1a1a1a;stroke-width:0.735"
         x="11.414407"
         y="4.0926075">Barcode</tspan></text><text
       xml:space="preserve"
       style="font-size:2.97409px;fill:#1a1a1a;stroke-width:0.734999"
       x="10.872964"
       y="6.7996783"
       id="text2"
       transform="scale(1.0406819,0.96090842)"><tspan
         sodipodi:role="line"
         id="tspan2"
         style="stroke-width:0.735"
         x="10.872964"
         y="6.7996783">Scanner</tspan></text></g></svg>
