<?xml version="1.0" encoding="UTF-8" standalone="no"?>
<!-- Created with Inkscape (http://www.inkscape.org/) -->

<svg
   width="300"
   height="100"
   viewBox="0 0 79.374999 26.458333"
   version="1.1"
   id="svg4559"
   inkscape:version="1.2 (1:1.2+202206011326+fc4e4096c5)"
   sodipodi:docname="log-fgta.svg"
   inkscape:export-filename="../Development/fgtacloud4u/server_clients/kalista/testprint/logo-fgta-baru.png"
   inkscape:export-xdpi="96"
   inkscape:export-ydpi="96"
   xmlns:inkscape="http://www.inkscape.org/namespaces/inkscape"
   xmlns:sodipodi="http://sodipodi.sourceforge.net/DTD/sodipodi-0.dtd"
   xmlns="http://www.w3.org/2000/svg"
   xmlns:svg="http://www.w3.org/2000/svg">
  <sodipodi:namedview
     id="namedview4561"
     pagecolor="#ffffff"
     bordercolor="#000000"
     borderopacity="0.25"
     inkscape:showpageshadow="2"
     inkscape:pageopacity="0.0"
     inkscape:pagecheckerboard="0"
     inkscape:deskcolor="#d1d1d1"
     inkscape:document-units="mm"
     showgrid="false"
     inkscape:zoom="2.1417558"
     inkscape:cx="115.32594"
     inkscape:cy="72.603982"
     inkscape:window-width="1862"
     inkscape:window-height="1016"
     inkscape:window-x="58"
     inkscape:window-y="27"
     inkscape:window-maximized="1"
     inkscape:current-layer="layer1" />
  <defs
     id="defs4556" />
  <g
     inkscape:label="Layer 1"
     inkscape:groupmode="layer"
     id="layer1">
    <g
       id="g1176"
       transform="matrix(0.56385853,0,0,0.58442231,102.50745,-34.313287)"
       inkscape:export-filename="/home/agung/Documents/DevProject/fgtacloud4u/server/public/images/fgta.png"
       inkscape:export-xdpi="27.884132"
       inkscape:export-ydpi="27.884132"
       style="fill:#000000">
      <path
         inkscape:connector-curvature="0"
         id="path2987-2-7"
         d="m -155.03917,64.925107 c -6.94938,3.169749 -10.90666,4.076309 -16.38555,13.733945 0.53726,-2.398075 -2.55097,-2.617091 -3.35683,-3.81595 -0.0893,2.579607 -1.25396,4.179369 -1.47783,6.541043 -3.31292,3.669621 -4.15709,8.641973 -3.62594,12.425625 0.27471,1.95786 0.42869,4.62584 3.49136,2.942312 4.41586,-2.427366 13.91056,-3.048863 12.98653,-11.240281 4.07404,-1.271541 4.83129,-3.510507 9.57689,-4.673203 -5.21908,-0.751066 -7.43261,-1.89146 -9.26815,0.179496 3.26823,-5.95861 7.74499,-9.698502 15.17687,-14.676183 -11.72974,4.360172 -14.46048,6.976903 -18.93743,12.099951 3.02718,-7.636838 6.82524,-9.796858 11.82008,-13.516738 z m -18.75543,17.52169 0.40637,0.781561 1.28257,-0.207695 -1.28257,0.625706 c -1.28713,1.605789 -1.86894,3.369119 -2.5625,5.107603 0.48514,-1.806706 1.11219,-3.614997 2.21417,-5.421721 l -0.0579,-0.885462 z m -3.09019,1.062648 c -0.0966,1.530216 -0.29658,3.023785 -1.19542,4.27171 l -1.08467,0.389512 c 0.11799,-1.93667 1.26749,-3.258476 2.28009,-4.661405 z m 8.37874,1.948115 -1.08454,4.371025 -3.2566,1.067365 c 0.48477,-2.243424 2.12446,-3.970014 4.34114,-5.43839 z"
         style="fill:#000000;stroke:none;stroke-width:1.20537" />
      <g
         id="text4185-5"
         style="font-style:normal;font-variant:normal;font-weight:normal;font-stretch:normal;font-size:22.3497px;line-height:125%;font-family:sdfsdf;-inkscape-font-specification:sdfsdf;letter-spacing:0px;word-spacing:0px;fill:#000000;fill-opacity:1;stroke:none;stroke-width:1px;stroke-linecap:butt;stroke-linejoin:miter;stroke-opacity:1"
         transform="matrix(1.3989856,0,0,1.0385444,-182.55679,-1170.1556)">
        <path
           id="path4294-3"
           style="font-style:oblique;font-variant:normal;font-weight:600;font-stretch:normal;font-family:'Latin Modern Roman Demi';-inkscape-font-specification:'Latin Modern Roman Demi Semi-Bold Oblique';fill:#000000"
           d="m 36.058656,1199.4531 0.201147,-5.3862 H 24.637958 l -0.156447,1.0504 h 2.100871 l -2.19027,13.0969 H 22.29124 l -0.178798,1.0504 c 0.804589,-0.067 2.905461,-0.067 3.799449,-0.067 1.028087,0 3.218357,0 4.112345,0.067 l 0.178798,-1.0504 h -2.637265 l 1.005737,-6.0344 h 0.379945 c 1.989123,0 1.944424,0.9163 1.653878,2.6149 h 1.050436 l 1.050435,-6.2803 h -1.050435 c -0.268197,1.6986 -0.536393,2.615 -2.525517,2.615 h -0.379945 l 1.005737,-6.0121 h 2.011473 c 3.397155,0 3.352455,1.8774 3.240707,4.3358 z"
           inkscape:connector-curvature="0" />
        <path
           id="path4296-5"
           style="font-style:oblique;font-variant:normal;font-weight:600;font-stretch:normal;font-family:'Latin Modern Roman Demi';-inkscape-font-specification:'Latin Modern Roman Demi Semi-Bold Oblique';fill:#000000"
           d="m 52.073613,1204.1466 0.178798,-1.0505 c -0.826939,0.067 -2.436117,0.067 -3.330105,0.067 -1.072786,0 -3.196008,0 -4.179394,-0.067 l -0.178798,1.0505 h 2.793713 l -0.379945,2.2573 c -0.290546,1.7656 -1.810326,2.0562 -2.458467,2.0562 -1.072786,0 -2.860762,-0.38 -3.665351,-2.0562 -0.625792,-1.408 -0.357596,-3.2854 -0.111749,-4.8052 0.201147,-1.2069 0.581092,-3.3972 1.698577,-4.7828 1.49743,-1.8327 3.352455,-2.0786 4.313493,-2.0786 1.743276,0 3.464203,1.3187 3.397154,4.6488 -0.02235,0.3576 0.134098,0.3576 0.514043,0.3576 0.581092,0 0.603442,-0.045 0.715191,-0.6258 l 0.804589,-4.8052 c 0.06705,-0.4246 0.0894,-0.6258 -0.312896,-0.6258 -0.201147,0 -0.245847,0.045 -0.446994,0.2012 l -1.49743,1.1845 c -1.028086,-1.0728 -2.25732,-1.3857 -3.419504,-1.3857 -4.46994,0 -8.336439,2.9055 -9.185727,7.9118 -0.826939,5.051 2.145571,7.9118 6.548462,7.9118 1.944424,0 3.106609,-0.9387 3.531253,-1.408 0.558742,0.5587 1.810326,1.1621 1.966774,1.1621 0.312895,0 0.357595,-0.2905 0.424644,-0.6257 l 0.73754,-4.4923 z"
           inkscape:connector-curvature="0" />
        <path
           id="path4298-6"
           style="font-style:oblique;font-variant:normal;font-weight:600;font-stretch:normal;font-family:'Latin Modern Roman Demi';-inkscape-font-specification:'Latin Modern Roman Demi Semi-Bold Oblique';fill:#000000"
           d="m 68.638235,1199.5649 0.446994,-5.3863 H 56.144752 l -1.385682,5.3863 h 1.050436 c 0.625792,-2.4585 1.095136,-4.3359 3.955897,-4.3359 h 1.095136 l -2.167921,12.9852 h -2.99486 l -0.178798,1.0504 c 1.095135,-0.067 3.419504,-0.067 4.604039,-0.067 1.184534,0 3.508903,0 4.559338,0.067 l 0.178798,-1.0504 h -2.99486 l 2.167921,-12.9852 h 1.072786 c 2.860762,0 2.704314,1.8551 2.480817,4.3359 z"
           inkscape:connector-curvature="0" />
        <path
           id="path4300-2"
           style="font-style:oblique;font-variant:normal;font-weight:600;font-stretch:normal;font-family:'Latin Modern Roman Demi';-inkscape-font-specification:'Latin Modern Roman Demi Semi-Bold Oblique';fill:#000000"
           d="m 82.100087,1209.2646 0.178798,-1.0504 H 80.37916 l -2.592565,-13.9686 c -0.111748,-0.5587 -0.335245,-0.581 -0.73754,-0.581 -0.402295,0 -0.648141,0 -0.938687,0.581 l -6.973107,13.4546 c -0.178798,0.3352 -0.201147,0.4023 -0.871639,0.4693 -0.446994,0.045 -0.961037,0.045 -1.296282,0.045 l -0.178798,1.0504 2.391418,-0.067 2.614915,0.067 0.178798,-1.0504 c -0.178798,0 -1.743277,0 -1.698577,-0.2682 l 0.134098,-0.2682 1.273933,-2.4808 h 4.894584 l 0.558743,3.0172 h -1.855025 l -0.178798,1.0504 c 0.826939,-0.067 2.771363,-0.067 3.665351,-0.067 0.871638,0 2.547866,0 3.330105,0.067 z m -5.721523,-5.118 H 72.22152 l 3.061909,-5.9004 z"
           inkscape:connector-curvature="0" />
      </g>
      <g
         id="text4195-9"
         style="font-style:normal;font-weight:normal;font-size:8.65592px;line-height:125%;font-family:sans-serif;letter-spacing:0px;word-spacing:0px;fill:#000000;fill-opacity:1;stroke:none;stroke-width:1px;stroke-linecap:butt;stroke-linejoin:miter;stroke-opacity:1"
         transform="matrix(1.2684607,0,0,1.1454109,-182.55679,-1170.1556)">
        <path
           id="path4253-1"
           style="font-style:italic;font-variant:normal;font-weight:bold;font-stretch:normal;font-family:Norasi;-inkscape-font-specification:'Norasi Bold Italic';fill:#000000"
           d="m 27.459723,1103.7829 q 0,-0.061 -0.129839,-1.082 h -1.861022 l -0.510699,0.8916 q -0.129839,0.2077 -0.129839,0.3895 0,0.3029 0.562635,0.3029 v 0.2164 h -1.69656 v -0.2164 q 0.242366,-0.061 0.38086,-0.1731 0.129839,-0.1125 0.337581,-0.4328 l 3.220001,-5.0896 h 0.216398 l 0.822312,4.9511 q 0.08656,0.4934 0.19043,0.606 0.112527,0.1125 0.545323,0.1384 v 0.2164 h -2.631399 v -0.2164 q 0.415484,-0.043 0.545323,-0.1384 0.138495,-0.095 0.138495,-0.3636 z m -1.791775,-1.4282 h 1.601345 l -0.320269,-2.1034 z"
           inkscape:connector-curvature="0" />
        <path
           id="path4255-2"
           style="font-style:italic;font-variant:normal;font-weight:bold;font-stretch:normal;font-family:Norasi;-inkscape-font-specification:'Norasi Bold Italic';fill:#000000"
           d="m 30.238408,1100.9784 v -0.2337 q 0.476075,-0.043 1.661936,-0.2337 l -0.311613,0.9867 q 0.372204,-0.5366 0.683817,-0.7617 0.320269,-0.225 0.692473,-0.225 0.42414,0 0.675162,0.277 0.251022,0.2769 0.251022,0.7617 0,1.1252 -0.761721,2.0947 -0.753065,0.9695 -1.635968,0.9695 -0.207743,0 -0.579947,-0.1905 l -0.02597,0.1126 q -0.294301,0.9954 -0.294301,1.2205 0,0.1471 0.121183,0.2163 0.129839,0.069 0.441452,0.078 v 0.225 h -2.155324 v -0.225 h 0.05194 q 0.268333,0 0.38086,-0.1212 0.103871,-0.1212 0.216398,-0.528 l 0.874248,-3.3585 0.19043,-0.8483 q 0,-0.1212 -0.09521,-0.1558 -0.08656,-0.043 -0.38086,-0.061 z m 2.579463,0.5626 q 0,-0.1904 -0.09521,-0.3029 -0.09522,-0.1212 -0.259678,-0.1212 -0.363548,0 -0.709785,0.528 -0.19043,0.3029 -0.46742,1.2551 -0.268333,0.9435 -0.268333,1.0906 0,0.1385 0.09521,0.2338 0.09521,0.086 0.242366,0.086 0.311613,0 0.597258,-0.3462 0.285645,-0.3549 0.46742,-0.831 0.181774,-0.4761 0.285645,-0.9175 0.112527,-0.4415 0.112527,-0.6752 z"
           inkscape:connector-curvature="0" />
        <path
           id="path4257-7"
           style="font-style:italic;font-variant:normal;font-weight:bold;font-stretch:normal;font-family:Norasi;-inkscape-font-specification:'Norasi Bold Italic';fill:#000000"
           d="m 34.54946,1100.9784 v -0.2337 q 0.476076,-0.043 1.661936,-0.2337 l -0.311613,0.9867 q 0.372205,-0.5366 0.683818,-0.7617 0.320269,-0.225 0.692473,-0.225 0.42414,0 0.675162,0.277 0.251021,0.2769 0.251021,0.7617 0,1.1252 -0.76172,2.0947 -0.753065,0.9695 -1.635969,0.9695 -0.207742,0 -0.579946,-0.1905 l -0.02597,0.1126 q -0.294301,0.9954 -0.294301,1.2205 0,0.1471 0.121183,0.2163 0.129839,0.069 0.441452,0.078 v 0.225 h -2.155324 v -0.225 h 0.05194 q 0.268333,0 0.38086,-0.1212 0.103871,-0.1212 0.216398,-0.528 l 0.874248,-3.3585 0.19043,-0.8483 q 0,-0.1212 -0.09522,-0.1558 -0.08656,-0.043 -0.380861,-0.061 z m 2.579464,0.5626 q 0,-0.1904 -0.09521,-0.3029 -0.09522,-0.1212 -0.259678,-0.1212 -0.363548,0 -0.709785,0.528 -0.19043,0.3029 -0.46742,1.2551 -0.268333,0.9435 -0.268333,1.0906 0,0.1385 0.09521,0.2338 0.09522,0.086 0.242366,0.086 0.311613,0 0.597258,-0.3462 0.285645,-0.3549 0.467419,-0.831 0.181775,-0.4761 0.285646,-0.9175 0.112527,-0.4415 0.112527,-0.6752 z"
           inkscape:connector-curvature="0" />
        <path
           id="path4259-0"
           style="font-style:italic;font-variant:normal;font-weight:bold;font-stretch:normal;font-family:Norasi;-inkscape-font-specification:'Norasi Bold Italic';fill:#000000"
           d="m 40.522449,1103.2809 0.19043,0.1211 q -0.450108,0.6839 -0.753065,0.9349 -0.302957,0.2423 -0.701129,0.2423 -0.259678,0 -0.42414,-0.1384 -0.164463,-0.1472 -0.164463,-0.3809 0,-0.2943 0.311613,-1.3676 l 0.631882,-2.2852 q 0.294302,-1.0041 0.294302,-1.2291 0,-0.2424 -0.354893,-0.2424 -0.09521,0 -0.19043,0.01 v -0.2337 q 0.952151,-0.1038 1.809087,-0.2596 l -1.255108,4.527 q -0.190431,0.6492 -0.190431,0.8656 0,0.1212 0.129839,0.1212 0.216398,0 0.666506,-0.6838 z"
           inkscape:connector-curvature="0" />
        <path
           id="path4261-9"
           style="font-style:italic;font-variant:normal;font-weight:bold;font-stretch:normal;font-family:Norasi;-inkscape-font-specification:'Norasi Bold Italic';fill:#000000"
           d="m 42.906207,1103.2809 0.19043,0.1211 q -0.450107,0.6839 -0.753064,0.9349 -0.302957,0.2423 -0.692474,0.2423 -0.259677,0 -0.432796,-0.1558 -0.164462,-0.1558 -0.164462,-0.3895 0,-0.1731 0.121183,-0.5972 l 0.502043,-1.8611 q 0.06925,-0.225 0.06925,-0.3462 0,-0.251 -0.519355,-0.251 v -0.2337 q 0.84828,-0.052 1.748496,-0.2337 l -0.787689,2.891 q -0.0779,0.2857 -0.0779,0.4415 0,0.1212 0.129839,0.1212 0.216398,0 0.553978,-0.5194 l 0.112527,-0.1644 z m -0.19043,-4.7175 q 0.242366,0 0.42414,0.1818 0.19043,0.1817 0.19043,0.4154 0,0.2424 -0.181774,0.4155 -0.181774,0.1731 -0.432796,0.1731 -0.23371,0 -0.406828,-0.1731 -0.164462,-0.1817 -0.164462,-0.4414 0,-0.2164 0.173118,-0.3895 0.181774,-0.1818 0.398172,-0.1818 z"
           inkscape:connector-curvature="0" />
        <path
           id="path4263-3"
           style="font-style:italic;font-variant:normal;font-weight:bold;font-stretch:normal;font-family:Norasi;-inkscape-font-specification:'Norasi Bold Italic';fill:#000000"
           d="m 45.774697,1100.788 q -0.320269,0 -0.631882,0.4501 -0.302957,0.4501 -0.476075,1.03 -0.173119,0.5713 -0.173119,1.0128 0,0.3549 0.173119,0.5712 0.173118,0.2078 0.458763,0.2078 0.27699,0 0.5107,-0.1731 0.233709,-0.1731 0.545322,-0.6059 l 0.242366,0.1558 q -0.389516,0.5539 -0.640538,0.7703 -0.484731,0.4069 -1.073334,0.4069 -0.579946,0 -0.952151,-0.3636 -0.363548,-0.3635 -0.363548,-0.9435 0,-1.03 0.770377,-1.9129 0.770376,-0.8829 1.687903,-0.8829 0.432796,0 0.70113,0.2164 0.276989,0.2077 0.276989,0.5539 0,0.2684 -0.155806,0.4415 -0.155807,0.1645 -0.389517,0.1645 -0.216398,0 -0.363548,-0.1299 -0.138495,-0.1298 -0.138495,-0.3203 0,-0.1384 0.08656,-0.2943 0.09522,-0.1558 0.09522,-0.2077 0,-0.1471 -0.19043,-0.1471 z"
           inkscape:connector-curvature="0" />
        <path
           id="path4265-6"
           style="font-style:italic;font-variant:normal;font-weight:bold;font-stretch:normal;font-family:Norasi;-inkscape-font-specification:'Norasi Bold Italic';fill:#000000"
           d="m 51.023293,1103.402 0.19043,0.1385 q -0.735753,1.0907 -1.307044,1.0907 -0.251021,0 -0.42414,-0.1645 -0.164462,-0.1731 -0.164462,-0.4241 0,-0.1472 0.112527,-0.5713 -0.372205,0.6232 -0.692474,0.8829 -0.320269,0.2597 -0.727097,0.2597 -0.415484,0 -0.675161,-0.303 -0.251022,-0.3029 -0.251022,-0.7963 0,-0.6579 0.363549,-1.3677 0.363548,-0.7098 0.917527,-1.1685 0.562635,-0.4674 1.08199,-0.4674 0.276989,0 0.42414,0.1471 0.155806,0.1385 0.225053,0.4674 l 0.147151,-0.5193 0.969463,-0.052 -0.623226,2.0428 q -0.294302,0.9955 -0.294302,1.2811 0,0.1299 0.103871,0.1299 0.103871,0 0.225054,-0.1212 0.129839,-0.1212 0.398173,-0.4848 z m -1.133926,-2.138 q 0,-0.1991 -0.112527,-0.2943 -0.103871,-0.1038 -0.225053,-0.1038 -0.302958,0 -0.649194,0.528 -0.337581,0.5193 -0.545323,1.1512 -0.199086,0.6232 -0.199086,0.9954 0,0.1905 0.103871,0.3203 0.112527,0.1298 0.268333,0.1298 0.363549,0 0.692474,-0.5712 0.337581,-0.5713 0.502043,-1.1946 0.164462,-0.6232 0.164462,-0.9608 z"
           inkscape:connector-curvature="0" />
        <path
           id="path4267-0"
           style="font-style:italic;font-variant:normal;font-weight:bold;font-stretch:normal;font-family:Norasi;-inkscape-font-specification:'Norasi Bold Italic';fill:#000000"
           d="m 53.291548,1100.9784 q -0.121182,0.4674 -0.328924,1.1945 -0.207742,0.7184 -0.320269,1.1339 -0.103871,0.4069 -0.103871,0.5367 0,0.043 0.04328,0.087 0.04328,0.035 0.09521,0.035 0.199086,0 0.666506,-0.6838 l 0.19043,0.1211 q -0.42414,0.6665 -0.744409,0.9262 -0.311613,0.251 -0.701129,0.251 -0.268334,0 -0.441452,-0.1558 -0.173118,-0.1644 -0.173118,-0.4068 0,-0.2164 0.216398,-0.9695 l 0.588602,-2.0687 h -0.450108 v -0.303 q 0.519355,-0.1991 0.882904,-0.502 0.372204,-0.303 0.701129,-0.8223 h 0.311613 l -0.337581,1.2551 h 0.623226 v 0.3722 h -0.718441 z"
           inkscape:connector-curvature="0" />
        <path
           id="path4269-6"
           style="font-style:italic;font-variant:normal;font-weight:bold;font-stretch:normal;font-family:Norasi;-inkscape-font-specification:'Norasi Bold Italic';fill:#000000"
           d="m 55.822458,1103.2809 0.19043,0.1211 q -0.450108,0.6839 -0.753065,0.9349 -0.302957,0.2423 -0.692473,0.2423 -0.259678,0 -0.432796,-0.1558 -0.164463,-0.1558 -0.164463,-0.3895 0,-0.1731 0.121183,-0.5972 l 0.502043,-1.8611 q 0.06925,-0.225 0.06925,-0.3462 0,-0.251 -0.519355,-0.251 v -0.2337 q 0.848279,-0.052 1.748495,-0.2337 l -0.787689,2.891 q -0.0779,0.2857 -0.0779,0.4415 0,0.1212 0.129839,0.1212 0.216398,0 0.553979,-0.5194 l 0.112527,-0.1644 z m -0.190431,-4.7175 q 0.242366,0 0.42414,0.1818 0.19043,0.1817 0.19043,0.4154 0,0.2424 -0.181774,0.4155 -0.181774,0.1731 -0.432796,0.1731 -0.233709,0 -0.406828,-0.1731 -0.164462,-0.1817 -0.164462,-0.4414 0,-0.2164 0.173118,-0.3895 0.181774,-0.1818 0.398172,-0.1818 z"
           inkscape:connector-curvature="0" />
        <path
           id="path4271-2"
           style="font-style:italic;font-variant:normal;font-weight:bold;font-stretch:normal;font-family:Norasi;-inkscape-font-specification:'Norasi Bold Italic';fill:#000000"
           d="m 58.803476,1100.511 q 0.588603,0 0.969463,0.3722 0.389516,0.3635 0.389516,0.9262 0,1.0993 -0.753065,1.9562 -0.744408,0.8483 -1.705215,0.8483 -0.605914,0 -0.995431,-0.3636 -0.389516,-0.3635 -0.389516,-0.9175 0,-1.0907 0.761721,-1.9562 0.770376,-0.8656 1.722527,-0.8656 z m -1.021398,3.8518 q 0.311613,0 0.579946,-0.3895 0.268334,-0.3895 0.42414,-0.9262 0.164463,-0.5366 0.251022,-1.0213 0.09522,-0.4934 0.09522,-0.7704 0,-0.5107 -0.406828,-0.5107 -0.337581,0 -0.623226,0.3895 -0.285645,0.3895 -0.441452,0.9348 -0.14715,0.5454 -0.23371,1.0214 -0.0779,0.4674 -0.0779,0.7358 0,0.251 0.112527,0.3982 0.121183,0.1384 0.320269,0.1384 z"
           inkscape:connector-curvature="0" />
        <path
           id="path4273-6"
           style="font-style:italic;font-variant:normal;font-weight:bold;font-stretch:normal;font-family:Norasi;-inkscape-font-specification:'Norasi Bold Italic';fill:#000000"
           d="m 62.205655,1102.2162 q 0.337581,-0.5021 0.502044,-0.7271 0.173118,-0.2337 0.424139,-0.5021 0.251022,-0.2769 0.484732,-0.3722 0.23371,-0.1038 0.510699,-0.1038 0.302957,0 0.467419,0.1644 0.173119,0.1645 0.173119,0.4761 0,0.3203 -0.23371,0.9954 l -0.311613,0.9435 q -0.216398,0.6579 -0.216398,0.7531 0,0.1471 0.121183,0.1471 0.103871,0 0.225054,-0.1298 0.129839,-0.1298 0.389516,-0.528 l 0.19043,0.1125 q -0.38086,0.6319 -0.692473,0.8829 -0.311613,0.251 -0.692473,0.251 -0.27699,0 -0.432796,-0.1384 -0.147151,-0.1472 -0.147151,-0.3809 0,-0.4155 0.23371,-1.1339 l 0.476075,-1.4456 q 0.04328,-0.1125 0.04328,-0.1731 0,-0.061 -0.06925,-0.1212 -0.06925,-0.061 -0.138495,-0.061 -0.121183,0 -0.302957,0.1299 -0.173119,0.1212 -0.294301,0.2943 -0.398173,0.5107 -0.675162,1.1599 -0.268333,0.6405 -0.579946,1.7917 h -1.056022 q 0.242365,-0.8829 0.251021,-0.9348 l 0.23371,-0.831 q 0.406828,-1.4801 0.406828,-1.5407 0,-0.1212 -0.103871,-0.1645 -0.103871,-0.043 -0.372204,-0.052 v -0.2337 q 0.891559,-0.052 1.731183,-0.2337 l -0.545323,1.7052 z"
           inkscape:connector-curvature="0" />
        <path
           id="path4275-1"
           style="font-style:italic;font-variant:normal;font-weight:bold;font-stretch:normal;font-family:Norasi;-inkscape-font-specification:'Norasi Bold Italic';fill:#000000"
           d="m 74.368435,1100.3205 q 0,-0.2337 -0.01731,-0.3722 -0.0087,-0.1471 -0.09521,-0.3549 -0.0779,-0.2077 -0.233709,-0.3202 -0.147151,-0.1126 -0.450108,-0.1991 -0.302957,-0.087 -0.735753,-0.087 -0.251022,0 -0.372205,0.078 -0.112526,0.078 -0.173118,0.303 l -0.528011,1.9216 q 0.84828,0 1.125269,-0.1472 0.27699,-0.1471 0.579947,-0.7617 l 0.259677,0.035 -0.649193,2.3631 -0.242366,-0.043 q 0.03462,-0.2164 0.03462,-0.3808 0,-0.4415 -0.251022,-0.5973 -0.242366,-0.1644 -0.934839,-0.1818 l -0.46742,1.7312 q -0.129838,0.4501 -0.129838,0.5973 0,0.1991 0.121182,0.277 0.129839,0.078 0.502044,0.1038 v 0.2164 H 69.14892 v -0.2164 q 0.346237,-0.061 0.46742,-0.1644 0.121183,-0.1125 0.225054,-0.4588 l 1.064677,-3.8865 q 0.09521,-0.3462 0.09521,-0.5193 0,-0.087 -0.02597,-0.1299 -0.01731,-0.052 -0.08656,-0.078 -0.06059,-0.035 -0.121183,-0.043 -0.05194,-0.017 -0.181775,-0.043 -0.129838,-0.026 -0.225053,-0.043 v -0.2078 h 4.622259 l -0.38086,1.6447 -0.23371,-0.035 z"
           inkscape:connector-curvature="0" />
        <path
           id="path4277-8"
           style="font-style:italic;font-variant:normal;font-weight:bold;font-stretch:normal;font-family:Norasi;-inkscape-font-specification:'Norasi Bold Italic';fill:#000000"
           d="m 77.56166,1101.6968 q -0.181774,0 -0.328924,-0.1558 -0.147151,-0.1558 -0.190431,-0.1558 -0.19043,0 -0.52801,0.5973 -0.207742,0.3376 -0.363549,0.7444 -0.147151,0.3982 -0.320269,0.9608 -0.164462,0.554 -0.259677,0.8136 h -1.047366 q 0.882903,-2.9776 0.882903,-3.3065 0,-0.1212 -0.08656,-0.1558 -0.08656,-0.043 -0.389516,-0.061 v -0.2337 q 1.133925,-0.095 1.739839,-0.2337 l -0.571291,1.8004 q 0.5107,-1.0301 0.830969,-1.4109 0.320268,-0.3895 0.657849,-0.3895 0.216398,0 0.354893,0.1558 0.138495,0.1471 0.138495,0.4155 0,0.2683 -0.147151,0.4414 -0.147151,0.1731 -0.372205,0.1731 z"
           inkscape:connector-curvature="0" />
        <path
           id="path4279-7"
           style="font-style:italic;font-variant:normal;font-weight:bold;font-stretch:normal;font-family:Norasi;-inkscape-font-specification:'Norasi Bold Italic';fill:#000000"
           d="m 81.72475,1103.402 0.190431,0.1385 q -0.735753,1.0907 -1.307044,1.0907 -0.251021,0 -0.42414,-0.1645 -0.164462,-0.1731 -0.164462,-0.4241 0,-0.1472 0.112527,-0.5713 -0.372205,0.6232 -0.692474,0.8829 -0.320269,0.2597 -0.727097,0.2597 -0.415484,0 -0.675161,-0.303 -0.251022,-0.3029 -0.251022,-0.7963 0,-0.6579 0.363549,-1.3677 0.363548,-0.7098 0.917527,-1.1685 0.562635,-0.4674 1.08199,-0.4674 0.276989,0 0.424139,0.1471 0.155807,0.1385 0.225054,0.4674 l 0.147151,-0.5193 0.969463,-0.052 -0.623226,2.0428 q -0.294302,0.9955 -0.294302,1.2811 0,0.1299 0.103871,0.1299 0.103871,0 0.225054,-0.1212 0.129839,-0.1212 0.398172,-0.4848 z m -1.133925,-2.138 q 0,-0.1991 -0.112527,-0.2943 -0.103871,-0.1038 -0.225053,-0.1038 -0.302958,0 -0.649194,0.528 -0.337581,0.5193 -0.545323,1.1512 -0.199086,0.6232 -0.199086,0.9954 0,0.1905 0.103871,0.3203 0.112527,0.1298 0.268333,0.1298 0.363549,0 0.692474,-0.5712 0.33758,-0.5713 0.502043,-1.1946 0.164462,-0.6232 0.164462,-0.9608 z"
           inkscape:connector-curvature="0" />
        <path
           id="path4281-9"
           style="font-style:italic;font-variant:normal;font-weight:bold;font-stretch:normal;font-family:Norasi;-inkscape-font-specification:'Norasi Bold Italic';fill:#000000"
           d="m 87.741017,1103.9906 q 0.06925,0 0.173118,-0.095 0.103871,-0.095 0.173118,-0.1991 0.0779,-0.1125 0.155807,-0.2337 0.08656,-0.1212 0.09521,-0.1298 l 0.19043,0.1125 q -0.372204,0.6406 -0.675162,0.8916 -0.302957,0.2423 -0.709785,0.2423 -0.579946,0 -0.579946,-0.5453 0,-0.4847 0.320269,-1.3243 l 0.38086,-1.134 q 0.06059,-0.2164 0.06059,-0.2596 0,-0.069 -0.06059,-0.1299 -0.05194,-0.061 -0.138495,-0.061 -0.38086,0 -0.969462,1.0214 -0.23371,0.4069 -0.363549,0.7531 -0.121183,0.3462 -0.510699,1.6013 h -1.03871 l 0.553979,-1.7917 q 0.398172,-1.1945 0.398172,-1.3763 0,-0.087 -0.05194,-0.1472 -0.04328,-0.061 -0.112526,-0.061 -0.08656,0 -0.251022,0.1212 -0.164463,0.1212 -0.311613,0.2857 -0.363549,0.4501 -0.649194,1.1079 -0.276989,0.6492 -0.61457,1.861 h -1.056022 l 0.588602,-2.0514 q 0.302958,-1.0387 0.302958,-1.2465 0,-0.225 -0.398173,-0.225 h -0.06925 v -0.2337 q 0.744409,-0.052 1.030054,-0.087 0.285645,-0.043 0.701129,-0.1471 l -0.553978,1.7225 q 0.268333,-0.4155 0.441452,-0.6579 0.181774,-0.251 0.424139,-0.528 0.251022,-0.277 0.502044,-0.4068 0.251021,-0.1298 0.519355,-0.1298 0.276989,0 0.432796,0.1558 0.155806,0.1471 0.155806,0.4241 0,0.2857 -0.23371,0.9002 0.545323,-0.8483 0.908872,-1.1599 0.363548,-0.3202 0.805,-0.3202 0.285645,0 0.476075,0.1731 0.199086,0.1731 0.199086,0.4328 0,0.3289 -0.207742,0.9262 l -0.389516,1.1512 q -0.181774,0.5886 -0.181774,0.6752 0,0.043 0.04328,0.086 0.04328,0.035 0.09522,0.035 z"
           inkscape:connector-curvature="0" />
        <path
           id="path4283-2"
           style="font-style:italic;font-variant:normal;font-weight:bold;font-stretch:normal;font-family:Norasi;-inkscape-font-specification:'Norasi Bold Italic';fill:#000000"
           d="m 91.743029,1103.2722 0.259677,0.1472 q -0.389516,0.6405 -0.770376,0.9175 -0.380861,0.277 -0.865592,0.277 -0.57129,0 -0.952151,-0.3636 -0.372204,-0.3635 -0.372204,-0.9002 0,-1.0733 0.779032,-1.9562 0.787689,-0.8829 1.722528,-0.8829 0.398172,0 0.649194,0.2077 0.259677,0.2077 0.259677,0.5367 0,0.4847 -0.467419,0.9088 -0.328925,0.303 -0.709786,0.4675 -0.38086,0.1644 -1.047366,0.2943 -0.05194,0.3289 -0.05194,0.4241 0,0.7098 0.57129,0.7098 0.268334,0 0.484732,-0.1645 0.216398,-0.1731 0.510699,-0.6232 z m -1.454194,-0.6232 q 0.155806,-0.052 0.294301,-0.1039 0.493387,-0.1731 0.779033,-0.5713 0.294301,-0.3982 0.294301,-0.8915 0,-0.2943 -0.242366,-0.2943 -0.623226,0 -1.125269,1.861 z"
           inkscape:connector-curvature="0" />
        <path
           id="path4285-0"
           style="font-style:italic;font-variant:normal;font-weight:bold;font-stretch:normal;font-family:Norasi;-inkscape-font-specification:'Norasi Bold Italic';fill:#000000"
           d="m 97.468514,1101.8094 q 0,-0.1212 -0.181775,-0.3723 -0.173118,-0.251 -0.173118,-0.4068 0,-0.2164 0.147151,-0.3635 0.14715,-0.1558 0.346236,-0.1558 0.199086,0 0.354893,0.1558 0.164462,0.1558 0.164462,0.3722 0,1.082 -2.363065,3.5749 h -0.225054 l -0.207742,-2.467 q -0.04328,0.1039 -0.484731,0.8743 -0.432796,0.7704 -0.484732,0.8483 l -0.493387,0.7444 h -0.23371 l 0.01731,-0.3895 v -0.3463 l -0.01731,-0.6665 q -0.04328,-1.9129 -0.311613,-2.1553 -0.08656,-0.078 -0.372204,-0.078 v -0.2337 q 0.986774,-0.1645 1.341667,-0.2337 0.251022,0.9781 0.285645,2.3717 l 1.350323,-2.3717 h 0.23371 l 0.27699,2.8651 q 1.030054,-1.2032 1.030054,-1.5667 z"
           inkscape:connector-curvature="0" />
        <path
           id="path4287-2"
           style="font-style:italic;font-variant:normal;font-weight:bold;font-stretch:normal;font-family:Norasi;-inkscape-font-specification:'Norasi Bold Italic';fill:#000000"
           d="m 100.78129,1100.511 q 0.58861,0 0.96947,0.3722 0.38951,0.3635 0.38951,0.9262 0,1.0993 -0.75306,1.9562 -0.74441,0.8483 -1.705218,0.8483 -0.605914,0 -0.99543,-0.3636 -0.389516,-0.3635 -0.389516,-0.9175 0,-1.0907 0.76172,-1.9562 0.770377,-0.8656 1.722524,-0.8656 z m -1.021394,3.8518 q 0.311614,0 0.579944,-0.3895 0.26834,-0.3895 0.42414,-0.9262 0.16446,-0.5366 0.25102,-1.0213 0.0952,-0.4934 0.0952,-0.7704 0,-0.5107 -0.40683,-0.5107 -0.33758,0 -0.62323,0.3895 -0.285641,0.3895 -0.441447,0.9348 -0.147151,0.5454 -0.23371,1.0214 -0.0779,0.4674 -0.0779,0.7358 0,0.251 0.112527,0.3982 0.121182,0.1384 0.320269,0.1384 z"
           inkscape:connector-curvature="0" />
        <path
           id="path4289-3"
           style="font-style:italic;font-variant:normal;font-weight:bold;font-stretch:normal;font-family:Norasi;-inkscape-font-specification:'Norasi Bold Italic';fill:#000000"
           d="m 105.49052,1101.6968 q -0.18178,0 -0.32893,-0.1558 -0.14715,-0.1558 -0.19043,-0.1558 -0.19043,0 -0.52801,0.5973 -0.20774,0.3376 -0.36355,0.7444 -0.14715,0.3982 -0.32027,0.9608 -0.16446,0.554 -0.25967,0.8136 h -1.04737 q 0.8829,-2.9776 0.8829,-3.3065 0,-0.1212 -0.0866,-0.1558 -0.0866,-0.043 -0.38951,-0.061 v -0.2337 q 1.13392,-0.095 1.73984,-0.2337 l -0.57129,1.8004 q 0.5107,-1.0301 0.83096,-1.4109 0.32027,-0.3895 0.65785,-0.3895 0.2164,0 0.3549,0.1558 0.13849,0.1471 0.13849,0.4155 0,0.2683 -0.14715,0.4414 -0.14715,0.1731 -0.3722,0.1731 z"
           inkscape:connector-curvature="0" />
        <path
           id="path4291-7"
           style="font-style:italic;font-variant:normal;font-weight:bold;font-stretch:normal;font-family:Norasi;-inkscape-font-specification:'Norasi Bold Italic';fill:#000000"
           d="m 107.20357,1102.8827 -0.42414,1.6186 h -1.06467 l 1.35032,-4.9079 q 0.0693,-0.2596 0.0693,-0.3635 0,-0.2943 -0.3549,-0.2943 -0.12118,0 -0.19043,0.01 v -0.2337 q 0.65785,-0.069 1.80043,-0.2596 l -1.06467,3.9817 q 0.82231,-0.6492 1.11661,-0.9435 0.30296,-0.2943 0.30296,-0.4588 0,-0.1039 -0.0952,-0.1385 -0.0952,-0.043 -0.35489,-0.052 v -0.2337 h 1.80043 v 0.2337 q -0.30296,0.043 -0.51936,0.1645 -0.20774,0.1125 -0.64053,0.476 l -0.54533,0.4848 q 0.25103,1.2724 0.36355,1.6359 0.12118,0.3549 0.30296,0.3549 0.12118,0 0.23371,-0.1212 0.12118,-0.1298 0.30296,-0.4328 l 0.19043,0.095 q -0.32027,0.5886 -0.58861,0.8309 -0.26833,0.2337 -0.5886,0.2337 -0.39817,0 -0.63188,-0.4068 -0.22505,-0.4068 -0.44145,-1.5148 l -0.32893,0.2424 z"
           inkscape:connector-curvature="0" />
      </g>
    </g>
  </g>
</svg>
